<svg id="SvgjsSvg1089" xmlns="http://www.w3.org/2000/svg" version="1.1"
    xlink="http://www.w3.org/1999/xlink" xmlns:svgjs="http://svgjs.com/svgjs" preserveAspectRatio="xMidYMid meet"
    viewBox="0 0 100 100" overflow="visible">
    <g id="SvgjsG1091" opacity="1">
        <g id="SvgjsG1095" class="s-YKNMNSS8"
            light-content="false" non-strokable="false" fill="#c9fd35">
            <path
                d="M9.05 33.793c1.274-11.43 4.31-17.137 9.661-20.449C24.547 9.731 34.02 8.332 50 8.332c9.465 0 16.75.48 22.398 1.7 5.598 1.206 9.3 3.081 11.895 5.675s4.469 6.297 5.676 11.898c1.219 5.645 1.699 12.93 1.699 22.395 0 15.98-1.398 25.453-5.012 31.29-3.312 5.35-9.02 8.386-20.449 9.66a4.16 4.16 0 0 0-3.68 4.601 4.166 4.166 0 0 0 4.602 3.68c12.43-1.383 21.31-4.98 26.613-13.555C98.746 77.59 100 65.844 100 50c0-9.633-.477-17.625-1.883-24.152-1.418-6.574-3.84-11.945-7.93-16.035s-9.46-6.512-16.034-7.93C67.624.477 59.633 0 50 0 34.157 0 22.41 1.254 14.326 6.258 5.75 11.563 2.152 20.442.77 32.871a4.166 4.166 0 0 0 3.68 4.602 4.16 4.16 0 0 0 4.6-3.68z">
            </path>
            <path
                d="M9.996 46.602a4.168 4.168 0 0 1 5.102-2.95 58.322 58.322 0 0 1 26.148 15.103 58.292 58.292 0 0 1 15.098 26.148 4.162 4.162 0 0 1-2.946 5.101 4.162 4.162 0 0 1-5.101-2.945 50.001 50.001 0 0 0-35.355-35.354 4.162 4.162 0 0 1-2.946-5.103zm.789 13.152a4.165 4.165 0 1 0-2.156 8.047 33.359 33.359 0 0 1 14.94 8.629 33.364 33.364 0 0 1 8.63 14.94 4.168 4.168 0 0 0 5.101 2.95 4.168 4.168 0 0 0 2.945-5.105 41.686 41.686 0 0 0-10.784-18.68 41.673 41.673 0 0 0-18.676-10.781zM6.469 75.852c-2.223-.594-4.508.723-5.102 2.945s.723 4.508 2.945 5.106a16.657 16.657 0 0 1 11.786 11.785 4.167 4.167 0 1 0 8.05-2.156 24.964 24.964 0 0 0-6.472-11.207 24.965 24.965 0 0 0-11.207-6.473z">
            </path>
        </g>
    </g>
</svg>