<svg id="SvgjsSvg1079" width="100%" height="100%" xmlns="http://www.w3.org/2000/svg" version="1.1" xlink="http://www.w3.org/1999/xlink" xmlns:svgjs="http://svgjs.com/svgjs" preserveAspectRatio="xMidYMid meet" viewBox="0 -1.1920928955078125e-7 163.53750610351562 147" overflow="visible"><defs id="SvgjsDefs1080"></defs><g id="SvgjsG1081" transform="scale(0.4950281481296982)" opacity="1"><g id="SvgjsG1082" class="nfwnD2mCa" transform="translate(64.47211818712324, -2.124369846194169) scale(2.2888155701603115)" light-content="false" non-strokable="false" fill="#c9fd35"><path d="M47 1.732l37.301 21.536a6 6 0 0 1 3 5.196v43.072a6 6 0 0 1-3 5.196L47 98.268a6 6 0 0 1-6 0L3.699 76.732a6 6 0 0 1-3-5.196V28.464a6 6 0 0 1 3-5.196L41 1.732a6 6 0 0 1 6 0z"></path></g><g id="SvgjsG1083" class="fh3jds9INA" transform="translate(110.4600793747592, 58.404531099921165) scale(1.0863125594000551)" light-content="true" non-strokable="false" fill="#000000"><path d="M9.05 33.793c1.274-11.43 4.31-17.137 9.661-20.449C24.547 9.731 34.02 8.332 50 8.332c9.465 0 16.75.48 22.398 1.7 5.598 1.206 9.3 3.081 11.895 5.675s4.469 6.297 5.676 11.898c1.219 5.645 1.699 12.93 1.699 22.395 0 15.98-1.398 25.453-5.012 31.29-3.312 5.35-9.02 8.386-20.449 9.66a4.16 4.16 0 0 0-3.68 4.601 4.166 4.166 0 0 0 4.602 3.68c12.43-1.383 21.31-4.98 26.613-13.555C98.746 77.59 100 65.844 100 50c0-9.633-.477-17.625-1.883-24.152-1.418-6.574-3.84-11.945-7.93-16.035s-9.46-6.512-16.034-7.93C67.624.477 59.633 0 50 0 34.157 0 22.41 1.254 14.326 6.258 5.75 11.563 2.152 20.442.77 32.871a4.166 4.166 0 0 0 3.68 4.602 4.16 4.16 0 0 0 4.6-3.68z"></path><path d="M9.996 46.602a4.168 4.168 0 0 1 5.102-2.95 58.322 58.322 0 0 1 26.148 15.103 58.292 58.292 0 0 1 15.098 26.148 4.162 4.162 0 0 1-2.946 5.101 4.162 4.162 0 0 1-5.101-2.945 50.001 50.001 0 0 0-35.355-35.354 4.162 4.162 0 0 1-2.946-5.103zm.789 13.152a4.165 4.165 0 1 0-2.156 8.047 33.359 33.359 0 0 1 14.94 8.629 33.364 33.364 0 0 1 8.63 14.94 4.168 4.168 0 0 0 5.101 2.95 4.168 4.168 0 0 0 2.945-5.105 41.686 41.686 0 0 0-10.784-18.68 41.673 41.673 0 0 0-18.676-10.781zM6.469 75.852c-2.223-.594-4.508.723-5.102 2.945s.723 4.508 2.945 5.106a16.657 16.657 0 0 1 11.786 11.785 4.167 4.167 0 1 0 8.05-2.156 24.964 24.964 0 0 0-6.472-11.207 24.965 24.965 0 0 0-11.207-6.473z"></path></g><g id="SvgjsG1084" class="text" transform="translate(164.30999755859375, 296.23280924941) scale(1)" light-content="false" fill="#ffffff"><path d="M-148.71 0.72C-146.19 0.72 -143.96 0.4 -142.02 -0.24C-140.08 -0.88 -138.44 -1.79 -137.1 -2.97C-135.76 -4.15 -134.74 -5.55 -134.04 -7.17C-133.34 -8.79 -132.99 -10.6 -132.99 -12.6C-132.99 -16.08 -134 -18.79 -136.02 -20.73C-138.04 -22.67 -141.17 -24.02 -145.41 -24.78L-149.31 -25.5C-151.35 -25.86 -152.83 -26.42 -153.75 -27.18C-154.67 -27.94 -155.13 -29.12 -155.13 -30.72C-155.13 -32.28 -154.56 -33.49 -153.42 -34.35C-152.28 -35.21 -150.57 -35.64 -148.29 -35.64C-146.05 -35.64 -144.19 -35.24 -142.71 -34.44C-141.23 -33.64 -139.97 -32.6 -138.93 -31.32L-133.53 -36.42C-135.21 -38.46 -137.23 -40 -139.59 -41.04C-141.95 -42.08 -144.71 -42.6 -147.87 -42.6C-150.23 -42.6 -152.34 -42.31 -154.2 -41.73C-156.06 -41.15 -157.65 -40.32 -158.97 -39.24C-160.29 -38.16 -161.3 -36.86 -162 -35.34C-162.7 -33.82 -163.05 -32.12 -163.05 -30.24C-163.05 -23.44 -158.87 -19.38 -150.51 -18.06L-146.55 -17.46C-144.35 -17.06 -142.85 -16.42 -142.05 -15.54C-141.25 -14.66 -140.85 -13.52 -140.85 -12.12C-140.85 -10.32 -141.47 -8.89 -142.71 -7.83C-143.95 -6.77 -145.79 -6.24 -148.23 -6.24C-150.39 -6.24 -152.36 -6.68 -154.14 -7.56C-155.92 -8.44 -157.53 -9.72 -158.97 -11.4L-164.31 -6.24C-162.51 -4.16 -160.36 -2.48 -157.86 -1.2C-155.36 0.08 -152.31 0.72 -148.71 0.72Z M-109.83 -34.86L-97.95 -34.86L-97.95 -41.88L-129.63 -41.88L-129.63 -34.86L-117.75 -34.86L-117.75 0L-109.83 0Z M-83.55 0L-83.55 -16.14L-76.05 -16.14L-68.25 0L-59.43 0L-68.01 -17.04C-65.41 -17.92 -63.46 -19.4 -62.16 -21.48C-60.86 -23.56 -60.21 -26.04 -60.21 -28.92C-60.21 -30.88 -60.5 -32.66 -61.08 -34.26C-61.66 -35.86 -62.48 -37.23 -63.54 -38.37C-64.6 -39.51 -65.89 -40.38 -67.41 -40.98C-68.93 -41.58 -70.65 -41.88 -72.57 -41.88L-91.47 -41.88L-91.47 0ZM-73.35 -22.8L-83.55 -22.8L-83.55 -34.98L-73.35 -34.98C-71.83 -34.98 -70.63 -34.58 -69.75 -33.78C-68.87 -32.98 -68.43 -31.82 -68.43 -30.3L-68.43 -27.54C-68.43 -26.02 -68.87 -24.85 -69.75 -24.03C-70.63 -23.21 -71.83 -22.8 -73.35 -22.8Z M-51.63 0L-24.03 0L-24.03 -7.02L-43.71 -7.02L-43.71 -17.7L-26.31 -17.7L-26.31 -24.72L-43.71 -24.72L-43.71 -34.86L-24.03 -34.86L-24.03 -41.88L-51.63 -41.88Z M10.29 0L18.51 0L4.59 -41.88L-5.25 -41.88L-19.29 0L-11.25 0L-7.95 -10.68L6.93 -10.68ZM-0.39 -34.68L5.01 -17.46L-6.03 -17.46L-0.69 -34.68Z M56.31 -30.06L56.31 0L63.81 0L63.81 -41.88L55.23 -41.88L44.61 -21.42L44.37 -21.42L33.63 -41.88L24.69 -41.88L24.69 0L32.19 0L32.19 -30.06L32.43 -30.06L35.67 -23.4L44.25 -7.56L52.83 -23.4L56.07 -30.06Z M71.91 0L90.93 0L90.93 -6.36L85.35 -6.36L85.35 -35.52L90.93 -35.52L90.93 -41.88L71.91 -41.88L71.91 -35.52L77.43 -35.52L77.43 -6.36L71.91 -6.36Z M99.03 0L106.95 0L106.95 -17.7L123.51 -17.7L123.51 -24.72L106.95 -24.72L106.95 -34.86L125.97 -34.86L125.97 -41.88L99.03 -41.88Z M143.67 0L151.65 0L151.65 -16.5L166.05 -41.88L157.41 -41.88L147.99 -24.18L147.87 -24.18L138.21 -41.88L129.33 -41.88L143.67 -16.44Z"></path></g></g></svg>